<?xml version="1.0" standalone="no"?>
<!DOCTYPE svg PUBLIC "-//W3C//DTD SVG 20010904//EN"
 "http://www.w3.org/TR/2001/REC-SVG-20010904/DTD/svg10.dtd">
<svg version="1.0" xmlns="http://www.w3.org/2000/svg"
 width="296.000000pt" height="171.000000pt" viewBox="0 0 296.000000 171.000000"
 preserveAspectRatio="xMidYMid meet">

<g transform="translate(0.000000,171.000000) scale(0.100000,-0.100000)"
fill="#000000" stroke="none">
<path d="M2005 1568 l-25 -23 89 -87 90 -88 20 29 c12 16 21 37 21 46 0 9 -28
46 -62 81 -68 71 -91 78 -133 42z"/>
<path d="M1927 1502 c-16 -17 -12 -23 76 -110 89 -89 94 -92 110 -74 16 17 12
23 -76 110 -89 89 -94 92 -110 74z"/>
<path d="M1727 1302 l-147 -147 -33 -110 c-19 -60 -32 -116 -29 -124 6 -17 39
-12 155 24 l88 26 150 147 151 147 -91 90 c-51 50 -93 91 -94 92 -2 1 -69 -64
-150 -145z m-43 -202 c22 0 26 -5 26 -29 0 -16 3 -36 6 -45 4 -11 -7 -19 -47
-30 -47 -14 -55 -14 -68 -1 -13 13 -13 21 3 70 15 49 19 54 36 45 10 -5 30
-10 44 -10z"/>
<path d="M895 1373 c-44 -23 -65 -44 -86 -85 -18 -34 -19 -63 -19 -386 l0
-348 29 -46 c34 -53 96 -88 159 -88 l42 0 0 -135 c0 -74 4 -135 8 -135 5 0 58
35 118 77 60 42 145 102 189 132 l80 56 255 5 c270 5 288 8 333 58 42 46 46
83 47 402 l0 304 -55 -54 -54 -53 -3 -253 c-3 -224 -5 -255 -20 -271 -16 -15
-47 -17 -275 -20 l-257 -3 -56 -36 c-30 -20 -85 -59 -121 -85 -37 -27 -69 -49
-72 -49 -4 0 -8 39 -9 87 l-3 87 -92 0 c-73 1 -96 5 -109 18 -15 15 -17 51
-18 353 l-1 337 24 19 c22 18 43 19 365 19 l341 0 60 55 59 55 -415 0 c-358
-1 -418 -3 -444 -17z"/>
<path d="M1087 853 c-4 -3 -7 -46 -7 -95 l0 -88 55 0 c78 0 120 44 79 84 -14
14 -14 18 -1 31 21 20 10 54 -20 66 -28 10 -97 12 -106 2z m98 -48 c0 -16 -8
-21 -37 -23 -35 -3 -38 -1 -38 23 0 24 3 26 38 23 29 -2 37 -7 37 -23z m10
-65 c13 -21 -9 -40 -46 -40 -35 0 -39 3 -39 24 0 13 5 26 12 28 16 6 67 -3 73
-12z"/>
<path d="M1266 853 c-3 -3 -6 -46 -6 -95 l0 -88 55 0 c42 0 55 3 55 15 0 11
-11 15 -40 15 l-40 0 0 74 c0 69 -8 95 -24 79z"/>
<path d="M1444 850 c-60 -24 -72 -104 -24 -152 27 -27 36 -30 73 -25 52 7 77
36 77 87 0 52 -8 68 -41 85 -31 17 -54 18 -85 5z m78 -32 c26 -20 27 -77 2
-102 -38 -39 -104 -5 -104 53 0 50 62 80 102 49z"/>
<path d="M1643 840 c-57 -35 -53 -125 8 -159 40 -22 95 -7 119 32 30 49 26 57
-30 57 -38 0 -50 -4 -50 -15 0 -11 7 -14 24 -9 28 7 43 -11 26 -31 -21 -25
-77 -19 -96 10 -19 30 -11 81 16 95 25 14 63 13 78 -2 9 -9 15 -9 23 -1 8 8 4
15 -12 27 -31 21 -67 20 -106 -4z"/>
</g>
</svg>
